# xmcd
#
# Track frame offsets:
#	150
#	18557
#	40067
#	54345
#	67317
#	78362
#	84620
#	95052
#	106857
#	115172
#	125412
#	143492
#	157995
#	173390
#	181622
#	197405
#	205340
#	214390
#	230727
#
# Disc length: 3198 seconds
#
# Revision: 1
# Processed by: cddbd v1.5.1PL0 Copyright (c) Steve Scherf et al.
# Submitted via: CDex 1.50Beta5
#
DISCID=fc0c7c13
DTITLE=さまざまなアーティスト - ヴェトナムの音楽
DYEAR=1900
DGENRE=
TTITLE0=チャン・クァン・ハイ/フー・ルック 大陸横断旅行
TTITLE1=ナム・アイ 南からの哀歌
TTITLE2=リー・ティン・タン 恋の歌
TTITLE3=グー・ディエム・バイ・タ 第五の時間
TTITLE4=ドック・タウ・ムオン
TTITLE5=ドック・タウ・シン・ティエン
TTITLE6=ドック・タウ・ダン・ド・フィエン
TTITLE7=ルー・トゥイ・キム・ティエン 流れる水、金のサベク(=コイン)
TTITLE8=ドック・タウ・ダン・モイ・チェ
TTITLE9=ドック・タウ・ダン・サット
TTITLE10=ズー・コン 子守歌
TTITLE11=コラ 空を舞うコウノトリ
TTITLE12=ホー・ドイ 輪唱
TTITLE13=ハイ・ホア 花摘み
TTITLE14=ホー・サン・ソン・ハイ・クイ 木を切りに川を渡るときの歌
TTITLE15=ハ・ホイ・チャン・ザム 満月の祭りの歌
TTITLE16=リー・チム・クイェン ナイチンゲールの歌
TTITLE17=クァ・カウ・ジョバイ 橋を渡っているときに風にとばされた
TTITLE18=ハ・ハイ・ジョン;コラ 空を舞うコウノトリ
EXTD=
EXTT0=
EXTT1=
EXTT2=
EXTT3=
EXTT4=
EXTT5=
EXTT6=
EXTT7=
EXTT8=
EXTT9=
EXTT10=
EXTT11=
EXTT12=
EXTT13=
EXTT14=
EXTT15=
EXTT16=
EXTT17=
EXTT18=
PLAYORDER=
